<svg xmlns="http://www.w3.org/2000/svg" viewBox="0 0 340 340" width="340" height="340">
    
    <defs>
      <linearGradient id="bg" x1="0" y1="0" x2="1" y2="1">
        <stop offset="0%" stop-color="#efe2ff"/>
        <stop offset="100%" stop-color="#fbf7ff"/>
      </linearGradient>
      <linearGradient id="shirtGrad" x1="0" y1="0" x2="1" y2="1">
        <stop offset="0%" stop-color="#ef6fa7"/>
        <stop offset="100%" stop-color="#ef6fa7" stop-opacity="0.78"/>
      </linearGradient>
      <filter id="shadow" x="-30%" y="-30%" width="160%" height="160%">
        <feDropShadow dx="0" dy="10" stdDeviation="10" flood-color="#22304d" flood-opacity="0.14"/>
      </filter>
    </defs>
    <rect width="340" height="340" rx="34" fill="url(#bg)"/>
    <path d="M42 82 C54 28, 124 14, 180 36 C250 18, 306 58, 300 118 C296 162, 258 184, 258 224 C258 274, 216 306, 164 302 C120 298, 104 276, 68 260 C18 236, 2 190, 16 146 C26 116, 34 110, 42 82 Z"
          fill="#ffffff" fill-opacity="0.26"/>
    <circle cx="266" cy="70" r="16" fill="#ffffff" fill-opacity="0.18"/>
    <circle cx="78" cy="260" r="22" fill="#ffffff" fill-opacity="0.12"/>
    
    
    <g filter="url(#shadow)">
      <path d="M108 292 C114 244 142 228 170 228 C198 228 226 244 232 292 Z"
            fill="url(#shirtGrad)" stroke="#23324b" stroke-width="4"/>
      <path d="M142 228 Q170 252 198 228" fill="none" stroke="#ffffff" stroke-opacity="0.36" stroke-width="4"/>
    </g>
    
    <ellipse cx="170" cy="156" rx="58" ry="66" fill="#f3ccaf" stroke="#23324b" stroke-width="4"/>
    
        <circle cx="170" cy="84" r="22" fill="#5c356e" stroke="#23324b" stroke-width="4"/>
        <path d="M114 130 C122 98 146 88 170 88 C196 88 218 102 226 132
                 C214 116 196 108 170 108 C144 108 126 116 114 130 Z"
              fill="#5c356e" stroke="#23324b" stroke-width="4"/>
        
    
        <circle cx="150" cy="156" r="6" fill="#23324b"/>
        <circle cx="190" cy="156" r="6" fill="#23324b"/>
        <circle cx="148" cy="154" r="1.7" fill="#ffffff"/>
        <circle cx="188" cy="154" r="1.7" fill="#ffffff"/>
        
    <path d="M166 168 Q170 176 174 168" fill="none" stroke="#c48473" stroke-width="3" stroke-linecap="round"/>
    <path d="M154 188 Q170 198 186 188" fill="none" stroke="#b45f70" stroke-width="4" stroke-linecap="round"/>
    
    <ellipse cx="132" cy="178" rx="10" ry="6" fill="#f2a0af" fill-opacity="0.45"/>
    <ellipse cx="208" cy="178" rx="10" ry="6" fill="#f2a0af" fill-opacity="0.45"/>
    
    
        <g transform="translate(122 98)">
          <path d="M0 10 C-18 -4 -18 26 0 18 C8 14 10 8 0 10 Z" fill="#ff7ea8"/>
          <path d="M16 10 C34 -4 34 26 16 18 C8 14 6 8 16 10 Z" fill="#ff7ea8"/>
          <circle cx="8" cy="12" r="6" fill="#f35e8e"/>
        </g>
        
    </svg>